# xmcd
#
# Track frame offsets: 
#        150
#        10402
#        22437
#        35975
#        49095
#        61992
#        72897
#        81632
#        93147
#        102542
#        112370
#        125135
#        135032
#        144350
#        155885
#        165015
#        174605
#        184220
#        196015
#        207492
#        218157
#        231830
#        243502
#        253765
#        264555
#        275352
#        288567
#        297300
#        307515
#        318162
#        327147
#        336632
#
# Disc length: 4644 seconds
#
# Revision: 0
# Processed by: cddbd v1.5.1PL0 Copyright (c) Steve Scherf et al.
# Submitted via: ExactAudioCopy v0.95a4
#
DISCID=f0122220
DTITLE=Various Artist - The 'D' Singles Volume 1 - Disc 4
DYEAR=1900
DGENRE=Country
TTITLE0=Ray Campi: The Man I Met (A Tribute To The Big Bopper)
TTITLE1=Ray Campi: Ballad Of Donna And Peggy Sue
TTITLE2=Doyle McCoy: Dottie
TTITLE3=Doyle McCoy: Some How I Don't Mind
TTITLE4=Cecil Bowman: Justice Of Love
TTITLE5=Cecil Bowman: Man Awaitin'
TTITLE6=The Velvetones: Penalty Of Love
TTITLE7=The Velvetones: Come Back
TTITLE8=Jimmie Heap and The Melody Masters: Born To Love You
TTITLE9=Jimmie Heap and The Melody Masters: Some One Else Is Filling My 
TTITLE9=Shoes
TTITLE10=Wiliiam Tell Taylor with Jimmie Heap and The Melody Masters: I 
TTITLE10=Love Only You
TTITLE11=Wiliiam Tell Taylor with Jimmie Heap and The Melody Masters: I 
TTITLE11=Like It
TTITLE12=Benny Barnes: Gold Records In The Snow
TTITLE13=Benny Barnes: Happy Little Bluebird
TTITLE14=Bill Kimbrough and The Townsmen: Chantilly Lace Cha-Cha
TTITLE15=Bill Kimbrough and The Townsmen: Egg Head
TTITLE16=Country Johnny Mathis: From A Kiss To The Blues
TTITLE17=Country Johnny Mathis: Since I Said Goodbye To Love
TTITLE18=Ray Jackson: What Makes You Cry
TTITLE19=Ray Jackson: Tea Leaves Don't Lie
TTITLE20=Ernie Kucera: Trunpets And Clarinets
TTITLE21=Ernie Kucera: Annie Waltz
TTITLE22=Ted Doyle: One More Heartache
TTITLE23=Ted Doyle: Just For The Thrill
TTITLE24=Byron Johnson: It's Wrong For Me To Love You
TTITLE25=Byron Johnson: Our Love Is Not Worth Living For
TTITLE26=Claude Gray: Letter Overdue
TTITLE27=Claude Gray: I'm Not Supposed
TTITLE28=Eddie Noack: Don't Look Behind
TTITLE29=Eddie Noack: A Thinking Man's Woman
TTITLE30=Andy Charles and The Blues Kings: Baby Don't Go
TTITLE31=Andy Charles and The Blues Kings: Love Come Back
EXTD=
EXTT0=
EXTT1=
EXTT2=
EXTT3=
EXTT4=
EXTT5=
EXTT6=
EXTT7=
EXTT8=
EXTT9=
EXTT10=
EXTT11=
EXTT12=
EXTT13=
EXTT14=
EXTT15=
EXTT16=
EXTT17=
EXTT18=
EXTT19=
EXTT20=
EXTT21=
EXTT22=
EXTT23=
EXTT24=
EXTT25=
EXTT26=
EXTT27=
EXTT28=
EXTT29=
EXTT30=
EXTT31=
PLAYORDER=
